<svg width="35" height="14" viewBox="0 0 35 14" fill="none" xmlns="http://www.w3.org/2000/svg">
<path d="M6.3618 5.946C7.0058 6.086 7.50046 6.366 7.8458 6.786C8.20046 7.19667 8.3778 7.72867 8.3778 8.382C8.3778 9.222 8.06513 9.87067 7.4398 10.328C6.8238 10.776 5.90913 11 4.6958 11H0.187797V1.2H4.4158C5.5078 1.2 6.35246 1.41933 6.9498 1.858C7.55646 2.29667 7.8598 2.91733 7.8598 3.72C7.8598 4.26133 7.72446 4.72333 7.4538 5.106C7.19246 5.47933 6.82846 5.75933 6.3618 5.946ZM1.2238 2.054V5.61H4.3458C5.13913 5.61 5.75046 5.46067 6.1798 5.162C6.60913 4.854 6.8238 4.41067 6.8238 3.832C6.8238 3.25333 6.60913 2.81467 6.1798 2.516C5.75046 2.208 5.13913 2.054 4.3458 2.054H1.2238ZM4.6818 10.146C5.55913 10.146 6.2218 9.99667 6.6698 9.698C7.1178 9.39933 7.3418 8.93267 7.3418 8.298C7.3418 7.07533 6.45513 6.464 4.6818 6.464H1.2238V10.146H4.6818ZM13.5425 11.07C12.8332 11.07 12.1938 10.9113 11.6245 10.594C11.0552 10.2673 10.6072 9.81933 10.2805 9.25C9.95382 8.68067 9.79048 8.03667 9.79048 7.318C9.79048 6.59933 9.95382 5.95533 10.2805 5.386C10.6072 4.81667 11.0552 4.37333 11.6245 4.056C12.1938 3.73867 12.8332 3.58 13.5425 3.58C14.2518 3.58 14.8912 3.73867 15.4605 4.056C16.0298 4.37333 16.4732 4.81667 16.7905 5.386C17.1172 5.95533 17.2805 6.59933 17.2805 7.318C17.2805 8.03667 17.1172 8.68067 16.7905 9.25C16.4732 9.81933 16.0298 10.2673 15.4605 10.594C14.8912 10.9113 14.2518 11.07 13.5425 11.07ZM13.5425 10.188C14.0652 10.188 14.5318 10.0713 14.9425 9.838C15.3625 9.59533 15.6892 9.25467 15.9225 8.816C16.1558 8.37733 16.2725 7.878 16.2725 7.318C16.2725 6.758 16.1558 6.25867 15.9225 5.82C15.6892 5.38133 15.3625 5.04533 14.9425 4.812C14.5318 4.56933 14.0652 4.448 13.5425 4.448C13.0198 4.448 12.5485 4.56933 12.1285 4.812C11.7178 5.04533 11.3912 5.38133 11.1485 5.82C10.9152 6.25867 10.7985 6.758 10.7985 7.318C10.7985 7.878 10.9152 8.37733 11.1485 8.816C11.3912 9.25467 11.7178 9.59533 12.1285 9.838C12.5485 10.0713 13.0198 10.188 13.5425 10.188ZM26.0298 0.611999V11H25.0778V9.544C24.7792 10.0387 24.3825 10.4167 23.8878 10.678C23.4025 10.9393 22.8518 11.07 22.2358 11.07C21.5452 11.07 20.9198 10.9113 20.3598 10.594C19.7998 10.2767 19.3612 9.83333 19.0438 9.264C18.7265 8.69467 18.5678 8.046 18.5678 7.318C18.5678 6.59 18.7265 5.94133 19.0438 5.372C19.3612 4.80267 19.7998 4.364 20.3598 4.056C20.9198 3.73867 21.5452 3.58 22.2358 3.58C22.8332 3.58 23.3698 3.706 23.8458 3.958C24.3312 4.20067 24.7278 4.56 25.0358 5.036V0.611999H26.0298ZM22.3198 10.188C22.8332 10.188 23.2952 10.0713 23.7058 9.838C24.1258 9.59533 24.4525 9.25467 24.6858 8.816C24.9285 8.37733 25.0498 7.878 25.0498 7.318C25.0498 6.758 24.9285 6.25867 24.6858 5.82C24.4525 5.38133 24.1258 5.04533 23.7058 4.812C23.2952 4.56933 22.8332 4.448 22.3198 4.448C21.7972 4.448 21.3258 4.56933 20.9058 4.812C20.4952 5.04533 20.1685 5.38133 19.9258 5.82C19.6925 6.25867 19.5758 6.758 19.5758 7.318C19.5758 7.878 19.6925 8.37733 19.9258 8.816C20.1685 9.25467 20.4952 9.59533 20.9058 9.838C21.3258 10.0713 21.7972 10.188 22.3198 10.188ZM34.9861 3.636L31.3041 11.882C31.0054 12.5727 30.6601 13.0627 30.2681 13.352C29.8761 13.6413 29.4048 13.786 28.8541 13.786C28.4994 13.786 28.1681 13.73 27.8601 13.618C27.5521 13.506 27.2861 13.338 27.0621 13.114L27.5241 12.372C27.8974 12.7453 28.3454 12.932 28.8681 12.932C29.2041 12.932 29.4888 12.8387 29.7221 12.652C29.9648 12.4653 30.1888 12.148 30.3941 11.7L30.7161 10.986L27.4261 3.636H28.4621L31.2341 9.894L34.0061 3.636H34.9861Z" fill="#1F2041" fill-opacity="0.25"/>
</svg>
