<svg width="25" height="14" viewBox="0 0 25 14" fill="none" xmlns="http://www.w3.org/2000/svg">
<path d="M12.0261 0.699999V14H10.6391V7.863H2.31712V14H0.911117V0.699999H2.31712V6.628H10.6391V0.699999H12.0261ZM24.2712 12.784V14H14.9422V13.031L20.4712 7.616C21.1678 6.932 21.6365 6.343 21.8772 5.849C22.1305 5.34233 22.2572 4.83567 22.2572 4.329C22.2572 3.54367 21.9848 2.93567 21.4402 2.505C20.9082 2.06167 20.1418 1.84 19.1412 1.84C17.5832 1.84 16.3735 2.334 15.5122 3.322L14.5432 2.486C15.0625 1.878 15.7212 1.40933 16.5192 1.08C17.3298 0.750666 18.2418 0.585999 19.2552 0.585999C20.6105 0.585999 21.6808 0.908999 22.4662 1.555C23.2642 2.18833 23.6632 3.06233 23.6632 4.177C23.6632 4.861 23.5112 5.51967 23.2072 6.153C22.9032 6.78633 22.3268 7.51467 21.4782 8.338L16.9562 12.784H24.2712Z" fill="#1F2041" fill-opacity="0.25"/>
</svg>
