<svg width="16" height="10" viewBox="0 0 16 10" fill="none" xmlns="http://www.w3.org/2000/svg">
<path d="M7.85284 0.599999V9H6.97684V5.124H1.72084V9H0.832844V0.599999H1.72084V4.344H6.97684V0.599999H7.85284ZM12.7066 4.2C13.5866 4.248 14.2546 4.488 14.7106 4.92C15.1746 5.344 15.4066 5.9 15.4066 6.588C15.4066 7.068 15.2906 7.496 15.0586 7.872C14.8266 8.24 14.4826 8.532 14.0266 8.748C13.5706 8.964 13.0146 9.072 12.3586 9.072C11.7506 9.072 11.1746 8.976 10.6306 8.784C10.0946 8.584 9.66256 8.32 9.33456 7.992L9.75456 7.308C10.0346 7.596 10.4066 7.832 10.8706 8.016C11.3346 8.192 11.8306 8.28 12.3586 8.28C13.0466 8.28 13.5786 8.132 13.9546 7.836C14.3306 7.532 14.5186 7.116 14.5186 6.588C14.5186 6.068 14.3306 5.66 13.9546 5.364C13.5786 5.068 13.0106 4.92 12.2506 4.92H11.6506V4.284L13.9786 1.368H9.68256V0.599999H15.0826V1.212L12.7066 4.2Z" fill="#1F2041" fill-opacity="0.25"/>
</svg>
